<svg clip-rule="evenodd" fill-rule="evenodd" stroke-linejoin="round" stroke-miterlimit="2" viewBox="0 0 90 151" xmlns="http://www.w3.org/2000/svg"><path d="m939.126 418.568-.022 98.545 64.426-37.959v-23.806l-42.256 24.039v-49.065l42.126-24.57.03-23.926z" fill="#5180e7" transform="translate(-915.642 -367.94674)"/><path d="m962.774 476.808 40.016-22.764c.46-.264 1.03-.261 1.49.008.47.268.75.762.75 1.296v23.806c0 .531-.28 1.023-.74 1.292l-64.425 37.96c-.464.273-1.038.277-1.506.01-.467-.268-.755-.765-.755-1.303l.022-98.545c.001-.538.289-1.035.756-1.302l64.298-36.742c.47-.266 1.04-.264 1.5.005s.75.764.75 1.299l-.03 23.926c0 .533-.28 1.025-.74 1.294l-41.386 24.136zm39.126-71.918.02-20.478-61.294 35.027-.022 95.049 61.426-36.191v-20.37l-40.015 22.764c-.464.264-1.034.261-1.496-.007-.461-.269-.745-.763-.745-1.297v-49.065c0-.533.283-1.027.744-1.295z" transform="translate(-915.642 -367.94674)"/><path d="m915.635 404.042c-.47.269-.758.77-.754 1.312.003.541.298 1.038.772 1.301l22.028 12.223c.458.254 1.016.251 1.471-.009l64.348-36.699c.47-.268.75-.77.75-1.312s-.3-1.04-.77-1.302l-22.177-12.31c-.459-.255-1.018-.251-1.474.01zm3.799 1.28 18.965 10.523 61.294-34.96-19.106-10.605z" transform="translate(-914.88 -367.05746)"/><path d="m959.779 378.591c-.471.266-.762.765-.762 1.305l-.017 25.103c0 .535.284 1.029.746 1.298.463.269 1.033.271 1.498.005l42.256-24.132c.47-.269.75-.77.75-1.312s-.3-1.04-.77-1.302l-22.177-12.31c-.457-.253-1.012-.251-1.466.006zm2.237 2.182-.014 21.642 37.692-21.529-19.112-10.609z" fill="#c51588" transform="translate(-914.864 -293.5569)"/><path d="m916.422 404.625c-.464-.266-1.035-.265-1.498.004-.463.268-.748.762-.748 1.297v98.124c0 .534.284 1.028.746 1.297l21.962 12.757c.463.269 1.035.271 1.499.005.465-.267.752-.761.754-1.297l.335-98.094c.002-.539-.286-1.038-.754-1.306zm.754 98.561 18.97 11.02.323-94.626-19.293-11.064z" transform="translate(-914.175 -367.64076)"/></svg>